<svg width="148" height="19" viewBox="0 0 148 19" fill="none" xmlns="http://www.w3.org/2000/svg">
<path d="M10.7891 10.6055H4.03906V15.1758H11.9609V18H0.523438V0.9375H11.9375V3.78516H4.03906V7.85156H10.7891V10.6055ZM20.3398 11.7539H17.5391V18H14.0234V0.9375H20.3633C22.3789 0.9375 23.9336 1.38672 25.0273 2.28516C26.1211 3.18359 26.668 4.45312 26.668 6.09375C26.668 7.25781 26.4141 8.23047 25.9062 9.01172C25.4062 9.78516 24.6445 10.4023 23.6211 10.8633L27.3125 17.8359V18H23.5391L20.3398 11.7539ZM17.5391 8.90625H20.375C21.2578 8.90625 21.9414 8.68359 22.4258 8.23828C22.9102 7.78516 23.1523 7.16406 23.1523 6.375C23.1523 5.57031 22.9219 4.9375 22.4609 4.47656C22.0078 4.01562 21.3086 3.78516 20.3633 3.78516H17.5391V8.90625ZM33.0898 18H29.5742V0.9375H33.0898V18ZM49.7539 12.3164C49.6211 14.1523 48.9414 15.5977 47.7148 16.6523C46.4961 17.707 44.8867 18.2344 42.8867 18.2344C40.6992 18.2344 38.9766 17.5 37.7188 16.0312C36.4688 14.5547 35.8438 12.5312 35.8438 9.96094V8.91797C35.8438 7.27734 36.1328 5.83203 36.7109 4.58203C37.2891 3.33203 38.1133 2.375 39.1836 1.71094C40.2617 1.03906 41.5117 0.703125 42.9336 0.703125C44.9023 0.703125 46.4883 1.23047 47.6914 2.28516C48.8945 3.33984 49.5898 4.82031 49.7773 6.72656H46.2617C46.1758 5.625 45.8672 4.82812 45.3359 4.33594C44.8125 3.83594 44.0117 3.58594 42.9336 3.58594C41.7617 3.58594 40.8828 4.00781 40.2969 4.85156C39.7188 5.6875 39.4219 6.98828 39.4062 8.75391V10.043C39.4062 11.8867 39.6836 13.2344 40.2383 14.0859C40.8008 14.9375 41.6836 15.3633 42.8867 15.3633C43.9727 15.3633 44.7812 15.1172 45.3125 14.625C45.8516 14.125 46.1602 13.3555 46.2383 12.3164H49.7539Z" fill="#525252"/>
<path d="M66.8867 13.5234C66.8867 12.8594 66.6523 12.3516 66.1836 12C65.7148 11.6406 64.8711 11.2656 63.6523 10.875C62.4336 10.4766 61.4688 10.0859 60.7578 9.70312C58.8203 8.65625 57.8516 7.24609 57.8516 5.47266C57.8516 4.55078 58.1094 3.73047 58.625 3.01172C59.1484 2.28516 59.8945 1.71875 60.8633 1.3125C61.8398 0.90625 62.9336 0.703125 64.1445 0.703125C65.3633 0.703125 66.4492 0.925781 67.4023 1.37109C68.3555 1.80859 69.0938 2.42969 69.6172 3.23438C70.1484 4.03906 70.4141 4.95312 70.4141 5.97656H66.8984C66.8984 5.19531 66.6523 4.58984 66.1602 4.16016C65.668 3.72266 64.9766 3.50391 64.0859 3.50391C63.2266 3.50391 62.5586 3.6875 62.082 4.05469C61.6055 4.41406 61.3672 4.89062 61.3672 5.48438C61.3672 6.03906 61.6445 6.50391 62.1992 6.87891C62.7617 7.25391 63.5859 7.60547 64.6719 7.93359C66.6719 8.53516 68.1289 9.28125 69.043 10.1719C69.957 11.0625 70.4141 12.1719 70.4141 13.5C70.4141 14.9766 69.8555 16.1367 68.7383 16.9805C67.6211 17.8164 66.1172 18.2344 64.2266 18.2344C62.9141 18.2344 61.7188 17.9961 60.6406 17.5195C59.5625 17.0352 58.7383 16.375 58.168 15.5391C57.6055 14.7031 57.3242 13.7344 57.3242 12.6328H60.8516C60.8516 14.5156 61.9766 15.457 64.2266 15.457C65.0625 15.457 65.7148 15.2891 66.1836 14.9531C66.6523 14.6094 66.8867 14.1328 66.8867 13.5234ZM83.0703 10.6055H76.3203V15.1758H84.2422V18H72.8047V0.9375H84.2188V3.78516H76.3203V7.85156H83.0703V10.6055ZM95.9375 14.4844H89.7734L88.6016 18H84.8633L91.2148 0.9375H94.4727L100.859 18H97.1211L95.9375 14.4844ZM90.7227 11.6367H94.9883L92.8438 5.25L90.7227 11.6367ZM108.77 11.7539H105.969V18H102.453V0.9375H108.793C110.809 0.9375 112.363 1.38672 113.457 2.28516C114.551 3.18359 115.098 4.45312 115.098 6.09375C115.098 7.25781 114.844 8.23047 114.336 9.01172C113.836 9.78516 113.074 10.4023 112.051 10.8633L115.742 17.8359V18H111.969L108.77 11.7539ZM105.969 8.90625H108.805C109.688 8.90625 110.371 8.68359 110.855 8.23828C111.34 7.78516 111.582 7.16406 111.582 6.375C111.582 5.57031 111.352 4.9375 110.891 4.47656C110.438 4.01562 109.738 3.78516 108.793 3.78516H105.969V8.90625ZM131.176 12.3164C131.043 14.1523 130.363 15.5977 129.137 16.6523C127.918 17.707 126.309 18.2344 124.309 18.2344C122.121 18.2344 120.398 17.5 119.141 16.0312C117.891 14.5547 117.266 12.5312 117.266 9.96094V8.91797C117.266 7.27734 117.555 5.83203 118.133 4.58203C118.711 3.33203 119.535 2.375 120.605 1.71094C121.684 1.03906 122.934 0.703125 124.355 0.703125C126.324 0.703125 127.91 1.23047 129.113 2.28516C130.316 3.33984 131.012 4.82031 131.199 6.72656H127.684C127.598 5.625 127.289 4.82812 126.758 4.33594C126.234 3.83594 125.434 3.58594 124.355 3.58594C123.184 3.58594 122.305 4.00781 121.719 4.85156C121.141 5.6875 120.844 6.98828 120.828 8.75391V10.043C120.828 11.8867 121.105 13.2344 121.66 14.0859C122.223 14.9375 123.105 15.3633 124.309 15.3633C125.395 15.3633 126.203 15.1172 126.734 14.625C127.273 14.125 127.582 13.3555 127.66 12.3164H131.176ZM147.371 18H143.855V10.6875H137V18H133.484V0.9375H137V7.85156H143.855V0.9375H147.371V18Z" fill="#56BD66"/>
</svg>
