<svg width="14" height="9" viewBox="0 0 14 9" fill="none" xmlns="http://www.w3.org/2000/svg">
<path d="M13.7762 0.691128L13.3176 0.229352C13.1733 0.0851391 12.9813 0.00569123 12.7761 0.00569123C12.571 0.00569123 12.3787 0.0851391 12.2344 0.229352L7.00313 5.46084L1.76584 0.223547C1.62174 0.0793341 1.42949 0 1.22438 0C1.01928 0 0.826917 0.0793341 0.682705 0.223547L0.224002 0.682477C-0.0746673 0.980919 -0.0746673 1.46705 0.224002 1.76549L6.45963 8.02354C6.60373 8.16764 6.79575 8.26917 7.00267 8.26917H7.00506C7.21029 8.26917 7.4023 8.16753 7.5464 8.02354L13.7762 1.78245C13.9206 1.63835 13.9998 1.44053 14 1.23542C14 1.0302 13.9206 0.835113 13.7762 0.691128Z" fill="white"/>
</svg>
